<svg xmlns="http://www.w3.org/2000/svg" viewBox="0 0 14 14" version="1.1">
  <path d="M6.44 0.020944C5.509658000000001 0.099708 4.6690000000000005 0.335272 3.857 0.744744C1.180788 2.094302 -0.33915 4.978204 0.062174 7.945C0.470722 10.965262 2.81169 13.38792 5.817 13.900656C7.295190000000001 14.152852000000001 8.80579 13.927382 10.143 13.254962C11.379620000000001 12.633124 12.40624 11.657226 13.092674 10.451C13.594266000000001 9.569574000000001 13.922398 8.486744 13.980526000000001 7.52108C13.985762 7.4342239999999995 13.995436 7.359828 14.002016000000001 7.355753999999999C14.008610000000001 7.35168 14.013902000000002 7.183344 14.01379 6.981674C14.013664 6.780004 14.008316 6.623288 14.00189 6.6334100000000005C13.99503 6.644246 13.986308000000001 6.583696000000001 13.980722 6.48641C13.925422000000001 5.523392 13.595806000000001 4.433114000000001 13.092674 3.549C12.010026000000002 1.646554 10.101672 0.353906 7.945 0.062174C7.49532 0.0013440000000000001 6.872894 -0.015708000000000003 6.44 0.020944M6.573 1.016316C5.987996 1.071924 5.62422 1.142904 5.16768 1.290492C4.261726 1.5833860000000002 3.495114 2.045596 2.815694 2.708566C2.100462 3.406466 1.59796 4.21666 1.290492 5.16768C1.167754 5.547332 1.089228 5.914146000000001 1.0331020000000002 6.37C1.008616 6.568898 1.008616 7.431102 1.0331020000000002 7.63C1.12469 8.373904 1.300236 8.985522 1.601656 9.611C2.0191220000000003 10.477306 2.650942 11.23906 3.4370000000000003 11.823784000000002C4.158784 12.360712000000001 5.025048 12.735688 5.922 12.899446000000001C6.327762 12.973519999999999 6.468532000000001 12.98465 7 12.98465C7.531468 12.98465 7.672238000000001 12.973519999999999 8.078 12.899446000000001C9.564408 12.628070000000001 10.887366 11.807978 11.80193 10.591000000000001C12.35535 9.854586 12.73293 8.990016 12.899446000000001 8.078C12.973519999999999 7.672238000000001 12.98465 7.531468 12.98465 7C12.98465 6.468532000000001 12.973519999999999 6.327762 12.899446000000001 5.922C12.626166000000001 4.425204 11.795014 3.092684 10.563 2.1762159999999997C9.836932000000001 1.636096 8.916754 1.2406380000000001 8.043000000000001 1.093232C7.668290000000001 1.030008 7.534492 1.019172 7.077 1.015042C6.8306 1.012816 6.6038 1.01339 6.573 1.016316M6.891122 3.010084C6.7473 3.04031 6.608756 3.15539 6.540240000000001 3.3015499999999998L6.503 3.3810000000000002 6.499304 6.334538L6.495608 9.288089999999999 5.638304 8.433054C4.961054 7.757582000000001 4.7663 7.57099 4.711 7.5445720000000005C4.608058 7.495404 4.433254 7.49028 4.319 7.533078C4.202604 7.576688 4.076688 7.702604000000001 4.033078 7.819C3.9903220000000004 7.933156 3.995418 8.108002 4.044516 8.211C4.0712839999999995 8.267154 4.337102 8.540714000000001 5.388446 9.594088000000001C6.877318000000001 11.085844 6.775272 10.997 7 10.997C7.224728000000001 10.997 7.122682 11.085844 8.611554 9.594088000000001C9.662898 8.540714000000001 9.928716 8.267154 9.955484 8.211C10.004582000000001 8.108002 10.009678 7.933156 9.966922 7.819C9.923312 7.702604000000001 9.797395999999999 7.576688 9.681000000000001 7.533078C9.566746 7.49028 9.391942 7.495404 9.289 7.5445720000000005C9.233699999999999 7.57099 9.038946000000001 7.757582000000001 8.361696 8.433054L7.504392 9.288089999999999 7.5006960000000005 6.334244000000001L7.497 3.380398 7.4515 3.287984C7.348012 3.0777880000000004 7.11613 2.962778 6.891122 3.010084M0.006118 7C0.006118 7.2040500000000005 0.008078 7.287532000000001 0.010458 7.1855C0.012852 7.083468 0.012852 6.916532 0.010458 6.8145C0.008078 6.712468 0.006118 6.79595 0.006118 7" stroke="none" fill="currentColor" fill-rule="evenodd" stroke-width="0.014"></path>
</svg>